<?xml version="1.0" standalone="no"?><!DOCTYPE svg PUBLIC "-//W3C//DTD SVG 1.1//EN" "http://www.w3.org/Graphics/SVG/1.1/DTD/svg11.dtd"><svg t="1617875580498" class="icon" viewBox="0 0 1024 1024" version="1.1" xmlns="http://www.w3.org/2000/svg" p-id="3586" xmlns:xlink="http://www.w3.org/1999/xlink" width="200" height="200"><defs><style type="text/css"></style></defs><path d="M874.666667 138.666667H550.4v-64c0-23.466667-19.2-42.666667-42.666667-42.666667s-42.666667 19.2-42.666666 42.666667v66.133333H142.933333c-46.933333 0-85.333333 38.4-85.333333 85.333333v445.866667c0 46.933333 38.4 85.333333 85.333333 85.333333h324.266667v25.6c-6.4 2.133333-14.933333 6.4-21.333333 10.666667l-162.133334 121.6c-19.2 14.933333-23.466667 40.533333-8.533333 59.733333 8.533333 10.666667 21.333333 17.066667 34.133333 17.066667 8.533333 0 17.066667-2.133333 25.6-8.533333l162.133334-121.6c4.266667-2.133333 14.933333-2.133333 17.066666 0l168.533334 121.6c19.2 12.8 44.8 8.533333 59.733333-8.533334 12.8-19.2 8.533333-44.8-8.533333-59.733333l-168.533334-121.6c-4.266667-2.133333-8.533333-6.4-12.8-8.533333v-27.733334H874.666667c46.933333 0 85.333333-38.4 85.333333-85.333333v-448c0-46.933333-38.4-85.333333-85.333333-85.333333z m0 533.333333H142.933333v-448H874.666667v448z" p-id="3587"></path><path d="M209.066667 582.4c10.666667 0 21.333333-4.266667 29.866666-12.8l140.8-134.4c2.133333-2.133333 6.4-2.133333 6.4 0l151.466667 125.866667c34.133333 27.733333 87.466667 27.733333 119.466667-2.133334l174.933333-149.333333c17.066667-14.933333 19.2-42.666667 4.266667-59.733333-14.933333-17.066667-42.666667-19.2-59.733334-4.266667l-174.933333 149.333333c-2.133333 2.133333-8.533333 2.133333-10.666667 0l-151.466666-125.866666C405.333333 341.333333 352 341.333333 320 373.333333l-140.8 134.4c-17.066667 17.066667-17.066667 42.666667-2.133333 59.733334 10.666667 10.666667 21.333333 14.933333 32 14.933333z" p-id="3588"></path></svg>