<?xml version="1.0" standalone="no"?><!DOCTYPE svg PUBLIC "-//W3C//DTD SVG 1.1//EN" "http://www.w3.org/Graphics/SVG/1.1/DTD/svg11.dtd"><svg t="1618221398745" class="icon" viewBox="0 0 1024 1024" version="1.1" xmlns="http://www.w3.org/2000/svg" p-id="5067" xmlns:xlink="http://www.w3.org/1999/xlink" width="200" height="200"><defs><style type="text/css"></style></defs><path d="M817.92 135.893333c7.808 0 15.232 3.242667 20.778667 9.002667a31.146667 31.146667 0 0 1 8.661333 21.674667v564.224c0 8.106667-3.114667 15.786667-8.661333 21.674666a28.544 28.544 0 0 1-20.736 9.002667H330.581333a28.8 28.8 0 0 1-20.736-9.002667 30.848 30.848 0 0 1-8.661333-21.674666V166.570667c0-8.106667 3.114667-15.786667 8.661333-21.674667a28.330667 28.330667 0 0 1 20.736-9.002667h487.381334z m0-50.56H330.624c-42.88 0-78.08 36.48-78.08 81.109334v564.266666c0 44.629333 35.2 81.109333 78.08 81.109334h487.381333c42.88 0 78.037333-36.48 78.037334-81.109334V166.4C896.085333 121.898667 860.970667 85.333333 817.92 85.333333z" p-id="5068"></path><path d="M767.36 708.053333H381.056c-13.653333 0-24.746667-11.946667-24.746667-26.496 0-14.592 11.093333-26.453333 24.746667-26.453333h386.432c13.653333 0 24.746667 11.861333 24.746667 26.453333 0 14.549333-11.093333 26.453333-24.874667 26.453334z m-107.093333-265.002666h-68.138667V398.08h68.181333c13.653333 0 24.746667-11.904 24.746667-26.453333 0-14.677333-11.093333-26.496-24.746667-26.496H602.453333l64.554667-69.205334a27.946667 27.946667 0 0 0 0-37.546666 23.552 23.552 0 0 0-34.986667 0L567.381333 307.626667l-64.64-69.205334a23.594667 23.594667 0 0 0-35.029333 0 27.946667 27.946667 0 0 0 0 37.546667l64.554667 69.205333h-57.770667c-13.653333 0-24.746667 11.946667-24.746667 26.453334 0 14.72 11.093333 26.496 24.746667 26.496h68.181333v44.928H474.453333c-13.653333 0-24.746667 11.946667-24.746666 26.453333 0 14.72 11.093333 26.538667 24.746666 26.538667h68.181334v27.733333a24.746667 24.746667 0 1 0 49.493333 0v-27.733333h68.138667c13.653333 0 24.746667-11.946667 24.746666-26.496 0-14.677333-11.093333-26.453333-24.746666-26.453334v-0.042666z" p-id="5069"></path><path d="M829.525333 882.133333H177.92V174.378667c0-14.762667-11.221333-26.794667-25.002667-26.794667-13.738667 0-24.96 12.032-24.96 26.794667v735.189333c0 14.805333 11.221333 26.794667 24.96 26.794667a25.301333 25.301333 0 0 0 5.290667-0.554667h671.274667c13.781333 0 24.96-11.989333 24.96-26.794667 0-14.762667-11.221333-26.88-24.96-26.88z" p-id="5070"></path></svg>